<svg width="532" height="297" viewBox="0 0 532 297" fill="none" xmlns="http://www.w3.org/2000/svg">
<path d="M63 193C63 179.745 73.7452 169 87 169H182C195.255 169 206 179.745 206 193V198C206 211.255 195.255 222 182 222H87C73.7452 222 63 211.255 63 198V193Z" fill="#476F68"/>
<path d="M190 91C190 77.7452 200.745 67 214 67H309C322.255 67 333 77.7452 333 91V96C333 109.255 322.255 120 309 120H214C200.745 120 190 109.255 190 96V91Z" fill="#476F68"/>
<path d="M327 193C327 179.745 337.745 169 351 169H446C459.255 169 470 179.745 470 193V198C470 211.255 459.255 222 446 222H351C337.745 222 327 211.255 327 198V193Z" fill="#476F68"/>
<path d="M63 193C63 179.745 73.7452 169 87 169H182C195.255 169 206 179.745 206 193V198C206 211.255 195.255 222 182 222H87C73.7452 222 63 211.255 63 198V193Z" fill="url(#paint0_linear_14_2)"/>
<path d="M190 91C190 77.7452 200.745 67 214 67H309C322.255 67 333 77.7452 333 91V96C333 109.255 322.255 120 309 120H214C200.745 120 190 109.255 190 96V91Z" fill="url(#paint1_linear_14_2)"/>
<path d="M327 193C327 179.745 337.745 169 351 169H446C459.255 169 470 179.745 470 193V198C470 211.255 459.255 222 446 222H351C337.745 222 327 211.255 327 198V193Z" fill="url(#paint2_linear_14_2)"/>
<path d="M127.729 202V201.145L129.565 200.812L129.583 195.214L129.565 189.778L127.729 189.472V188.5H133.471C134.893 188.5 135.976 188.824 136.72 189.472C137.464 190.114 137.836 191.071 137.836 192.343C137.836 193.579 137.443 194.596 136.657 195.394C135.871 196.192 134.758 196.591 133.318 196.591C132.682 196.591 132.115 196.561 131.617 196.501C131.119 196.435 130.729 196.378 130.447 196.33L130.528 195.421C130.882 195.505 131.227 195.562 131.563 195.592C131.905 195.616 132.379 195.628 132.985 195.628C133.993 195.628 134.761 195.34 135.289 194.764C135.817 194.188 136.081 193.381 136.081 192.343C136.081 191.395 135.829 190.687 135.325 190.219C134.821 189.745 134.092 189.508 133.138 189.508H131.5L131.194 189.706L131.167 195.124L131.185 200.857L133.21 201.145V202H127.729ZM138.96 202V201.316L140.391 201.001L140.409 197.257L140.391 189.571L138.744 189.301V188.5L141.408 188.194L141.723 188.212L141.921 188.491L141.903 197.257L141.921 201.001L143.325 201.316V202H138.96ZM144.243 199.642C144.243 198.91 144.705 198.244 145.629 197.644C146.553 197.038 148.014 196.555 150.012 196.195L150.093 196.879C148.749 197.083 147.708 197.404 146.97 197.842C146.232 198.274 145.863 198.829 145.863 199.507C145.863 200.053 146.049 200.464 146.421 200.74C146.793 201.01 147.252 201.145 147.798 201.145C148.38 201.145 148.902 200.974 149.364 200.632C149.832 200.29 150.096 199.963 150.156 199.651L150.444 199.66C150.456 200.242 150.129 200.8 149.463 201.334C148.797 201.868 148.005 202.135 147.087 202.135C146.151 202.135 145.443 201.904 144.963 201.442C144.483 200.974 144.243 200.374 144.243 199.642ZM144.675 194.17C144.831 193.888 145.179 193.597 145.719 193.297C146.265 192.991 146.964 192.838 147.816 192.838C148.896 192.838 149.748 193.135 150.372 193.729C150.996 194.317 151.317 195.343 151.335 196.807L151.38 201.001L152.694 201.316V202H150.48L150.039 201.478L149.85 200.533L149.868 196.726C149.874 195.646 149.673 194.896 149.265 194.476C148.857 194.056 148.26 193.846 147.474 193.846C146.928 193.846 146.46 193.924 146.07 194.08C145.68 194.23 145.356 194.407 145.098 194.611L144.675 194.17ZM153.779 202V201.316L155.093 201.001L155.111 197.266L155.093 194.413L153.779 194.134V193.333L156.101 193.027L156.407 193.261L156.614 194.215L156.605 197.266L156.623 201.001L157.838 201.316V202H153.779ZM156.569 195.502L156.281 194.899C156.545 194.311 156.998 193.822 157.64 193.432C158.288 193.036 158.975 192.838 159.701 192.838C160.613 192.838 161.3 193.06 161.762 193.504C162.224 193.948 162.455 194.554 162.455 195.322C162.455 195.766 162.446 196.204 162.428 196.636C162.416 197.068 162.41 197.284 162.41 197.284L162.455 201.001L163.769 201.316V202H159.521V201.316L160.925 201.001L160.943 197.257V195.673C160.943 195.169 160.784 194.779 160.466 194.503C160.148 194.227 159.725 194.089 159.197 194.089C158.657 194.089 158.15 194.221 157.676 194.485C157.202 194.743 156.833 195.082 156.569 195.502Z" fill="#DAD4C8"/>
<path d="M242.729 100V99.145L244.565 98.812L244.583 93.214L244.565 87.778L242.729 87.472V86.5H248.471C249.893 86.5 250.976 86.824 251.72 87.472C252.464 88.114 252.836 89.071 252.836 90.343C252.836 91.579 252.443 92.596 251.657 93.394C250.871 94.192 249.758 94.591 248.318 94.591C247.682 94.591 247.115 94.561 246.617 94.501C246.119 94.435 245.729 94.378 245.447 94.33L245.528 93.421C245.882 93.505 246.227 93.562 246.563 93.592C246.905 93.616 247.379 93.628 247.985 93.628C248.993 93.628 249.761 93.34 250.289 92.764C250.817 92.188 251.081 91.381 251.081 90.343C251.081 89.395 250.829 88.687 250.325 88.219C249.821 87.745 249.092 87.508 248.138 87.508H246.5L246.194 87.706L246.167 93.124L246.185 98.857L248.21 99.145V100H242.729ZM253.618 97.642C253.618 96.91 254.08 96.244 255.004 95.644C255.928 95.038 257.389 94.555 259.387 94.195L259.468 94.879C258.124 95.083 257.083 95.404 256.345 95.842C255.607 96.274 255.238 96.829 255.238 97.507C255.238 98.053 255.424 98.464 255.796 98.74C256.168 99.01 256.627 99.145 257.173 99.145C257.755 99.145 258.277 98.974 258.739 98.632C259.207 98.29 259.471 97.963 259.531 97.651L259.819 97.66C259.831 98.242 259.504 98.8 258.838 99.334C258.172 99.868 257.38 100.135 256.462 100.135C255.526 100.135 254.818 99.904 254.338 99.442C253.858 98.974 253.618 98.374 253.618 97.642ZM254.05 92.17C254.206 91.888 254.554 91.597 255.094 91.297C255.64 90.991 256.339 90.838 257.191 90.838C258.271 90.838 259.123 91.135 259.747 91.729C260.371 92.317 260.692 93.343 260.71 94.807L260.755 99.001L262.069 99.316V100H259.855L259.414 99.478L259.225 98.533L259.243 94.726C259.249 93.646 259.048 92.896 258.64 92.476C258.232 92.056 257.635 91.846 256.849 91.846C256.303 91.846 255.835 91.924 255.445 92.08C255.055 92.23 254.731 92.407 254.473 92.611L254.05 92.17ZM263.154 100V99.316L264.468 99.001L264.486 95.266L264.468 92.413L263.154 92.134V91.333L265.476 91.027L265.782 91.261L265.989 92.215L265.98 95.266L265.998 99.001L267.213 99.316V100H263.154ZM265.944 93.502L265.656 92.899C265.92 92.311 266.373 91.822 267.015 91.432C267.663 91.036 268.35 90.838 269.076 90.838C269.988 90.838 270.675 91.06 271.137 91.504C271.599 91.948 271.83 92.554 271.83 93.322C271.83 93.766 271.821 94.204 271.803 94.636C271.791 95.068 271.785 95.284 271.785 95.284L271.83 99.001L273.144 99.316V100H268.896V99.316L270.3 99.001L270.318 95.257V93.673C270.318 93.169 270.159 92.779 269.841 92.503C269.523 92.227 269.1 92.089 268.572 92.089C268.032 92.089 267.525 92.221 267.051 92.485C266.577 92.743 266.208 93.082 265.944 93.502ZM273.855 92.143V91.504C274.551 91.336 275.079 91.036 275.439 90.604C275.799 90.166 276.075 89.752 276.267 89.362H276.672L276.96 89.866L276.816 95.284L276.888 98.551L277.329 99.055H278.589V99.739L276.51 100.072C276.048 100.072 275.718 99.952 275.52 99.712C275.328 99.466 275.235 99.076 275.241 98.542L275.304 95.284V92.251L273.855 92.143ZM276.465 92.143L276.501 91.27H278.796V92.143H276.465ZM279.835 100V99.316L281.149 99.001L281.167 95.284L281.149 92.413L279.835 92.134V91.333L282.157 91.027L282.463 91.261L282.67 92.179L282.661 95.284L282.679 99.001L284.074 99.316V100H279.835ZM282.454 93.601L282.157 93.088C282.427 92.494 282.862 92.002 283.462 91.612C284.068 91.216 284.833 91.018 285.757 91.018H286.63V93.349H285.703L285.361 92.17C284.863 92.17 284.344 92.287 283.804 92.521C283.27 92.749 282.82 93.109 282.454 93.601ZM286.751 91.801V91.027H290.54V91.801L289.361 92.134L290.45 95.194L291.602 98.137L292.718 95.167L293.807 92.071L292.565 91.801V91.027H296.273V91.801L294.923 92.116L293.609 95.518L291.044 102.502C290.792 103.186 290.447 103.675 290.009 103.969C289.577 104.269 289.097 104.419 288.569 104.419L287.165 104.131V103.357H288.056C288.41 103.357 288.809 103.255 289.253 103.051C289.703 102.853 290.054 102.409 290.306 101.719L290.891 100.099L289.217 95.68L287.804 92.116L286.751 91.801Z" fill="#DAD4C8"/>
<path d="M388.729 201V200.145L390.565 199.857L390.583 194.214L390.565 188.778L388.729 188.472V187.5H394.327V188.472L392.185 188.778L392.167 194.214L392.185 199.839L392.572 200.082H397.369L398.197 197.256H399.241L398.782 201H388.729ZM399.916 201V200.316L401.401 200.001L401.419 196.284L401.356 193.413L399.871 193.134V192.333L402.355 192.027H402.76L402.976 192.378L402.913 196.284L402.931 200.001L404.335 200.316V201H399.916ZM401.005 188.985C401.005 188.637 401.101 188.367 401.293 188.175C401.485 187.983 401.761 187.887 402.121 187.887C402.463 187.887 402.736 187.989 402.94 188.193C403.144 188.397 403.246 188.661 403.246 188.985C403.246 189.339 403.15 189.612 402.958 189.804C402.766 189.99 402.487 190.083 402.121 190.083C401.785 190.083 401.515 189.984 401.311 189.786C401.107 189.582 401.005 189.315 401.005 188.985ZM405.387 201V197.967H406.296L406.755 199.938L406.161 201H405.387ZM405.711 194.187C405.711 193.527 405.945 192.972 406.413 192.522C406.887 192.066 407.604 191.838 408.564 191.838C409.248 191.838 409.782 191.934 410.166 192.126C410.556 192.318 410.871 192.537 411.111 192.783L410.706 193.467C410.508 193.293 410.211 193.119 409.815 192.945C409.425 192.765 409.02 192.675 408.6 192.675C408.066 192.675 407.673 192.786 407.421 193.008C407.169 193.23 407.043 193.518 407.043 193.872C407.043 194.25 407.178 194.547 407.448 194.763C407.718 194.979 408.318 195.222 409.248 195.492C410.16 195.75 410.889 196.089 411.435 196.509C411.987 196.929 412.263 197.571 412.263 198.435C412.263 199.197 411.975 199.845 411.399 200.379C410.823 200.913 410.058 201.18 409.104 201.18C408.252 201.18 407.571 201.018 407.061 200.694C406.551 200.364 406.086 199.929 405.666 199.389L406.449 198.867C406.581 199.233 406.881 199.56 407.349 199.848C407.817 200.136 408.336 200.28 408.906 200.28C409.5 200.28 409.98 200.142 410.346 199.866C410.718 199.584 410.904 199.197 410.904 198.705C410.904 198.201 410.709 197.823 410.319 197.571C409.935 197.319 409.257 197.049 408.285 196.761C407.313 196.467 406.641 196.128 406.269 195.744C405.897 195.36 405.711 194.841 405.711 194.187ZM410.22 193.071L410.724 192.027H411.507V194.691H410.598L410.22 193.071ZM412.824 193.143V192.504C413.52 192.336 414.048 192.036 414.408 191.604C414.768 191.166 415.044 190.752 415.236 190.362H415.641L415.929 190.866L415.785 196.284L415.857 199.551L416.298 200.055H417.558V200.739L415.479 201.072C415.017 201.072 414.687 200.952 414.489 200.712C414.297 200.466 414.204 200.076 414.21 199.542L414.273 196.284V193.251L412.824 193.143ZM415.434 193.143L415.47 192.27H417.765V193.143H415.434Z" fill="#DAD4C8"/>
<path d="M92 185V189" stroke="#DAD4C8" stroke-width="2" stroke-linecap="round" stroke-linejoin="round"/>
<path d="M100 185V189" stroke="#DAD4C8" stroke-width="2" stroke-linecap="round" stroke-linejoin="round"/>
<path d="M103 187H89C87.8954 187 87 187.895 87 189V203C87 204.105 87.8954 205 89 205H103C104.105 205 105 204.105 105 203V189C105 187.895 104.105 187 103 187Z" stroke="#DAD4C8" stroke-width="2" stroke-linecap="round" stroke-linejoin="round"/>
<path d="M87 193H105" stroke="#DAD4C8" stroke-width="2" stroke-linecap="round" stroke-linejoin="round"/>
<path d="M92 197H92.01" stroke="#DAD4C8" stroke-width="2" stroke-linecap="round" stroke-linejoin="round"/>
<path d="M96 197H96.01" stroke="#DAD4C8" stroke-width="2" stroke-linecap="round" stroke-linejoin="round"/>
<path d="M100 197H100.01" stroke="#DAD4C8" stroke-width="2" stroke-linecap="round" stroke-linejoin="round"/>
<path d="M92 201H92.01" stroke="#DAD4C8" stroke-width="2" stroke-linecap="round" stroke-linejoin="round"/>
<path d="M96 201H96.01" stroke="#DAD4C8" stroke-width="2" stroke-linecap="round" stroke-linejoin="round"/>
<path d="M100 201H100.01" stroke="#DAD4C8" stroke-width="2" stroke-linecap="round" stroke-linejoin="round"/>
<path d="M216 87C216 85.9391 216.421 84.9217 217.172 84.1716C217.922 83.4214 218.939 83 220 83H226C227.061 83 228.078 83.4214 228.828 84.1716C229.579 84.9217 230 85.9391 230 87V101C230 101.53 229.789 102.039 229.414 102.414C229.039 102.789 228.53 103 228 103H218C217.47 103 216.961 102.789 216.586 102.414C216.211 102.039 216 101.53 216 101V87Z" stroke="#DAD4C8" stroke-width="2" stroke-linecap="round" stroke-linejoin="round"/>
<path d="M216 91H230" stroke="#DAD4C8" stroke-width="2" stroke-linecap="round" stroke-linejoin="round"/>
<path d="M226 88V94" stroke="#DAD4C8" stroke-width="2" stroke-linecap="round" stroke-linejoin="round"/>
<path d="M357 205C357.552 205 358 204.552 358 204C358 203.448 357.552 203 357 203C356.448 203 356 203.448 356 204C356 204.552 356.448 205 357 205Z" stroke="#DAD4C8" stroke-width="2" stroke-linecap="round" stroke-linejoin="round"/>
<path d="M368 205C368.552 205 369 204.552 369 204C369 203.448 368.552 203 368 203C367.448 203 367 203.448 367 204C367 204.552 367.448 205 368 205Z" stroke="#DAD4C8" stroke-width="2" stroke-linecap="round" stroke-linejoin="round"/>
<path d="M351.05 185.05H353.05L355.71 197.47C355.808 197.925 356.061 198.331 356.426 198.62C356.791 198.908 357.245 199.06 357.71 199.05H367.49C367.945 199.049 368.386 198.893 368.741 198.608C369.096 198.322 369.342 197.925 369.44 197.48L371.09 190.05H354.12" stroke="#DAD4C8" stroke-width="2" stroke-linecap="round" stroke-linejoin="round"/>
<path opacity="0.7" d="M1 193C0.447715 193 0 193.448 0 194C0 194.552 0.447715 195 1 195V194V193ZM62 194L52 188.226V199.774L62 194ZM1 194V195H53V194V193H1V194Z" fill="#5C8F86"/>
<path opacity="0.7" d="M262 1C262 0.447715 261.552 0 261 0C260.448 0 260 0.447715 260 1L261 1L262 1ZM261 67L266.774 57H255.226L261 67ZM261 1L260 1L260 58H261H262L262 1L261 1Z" fill="#5C8F86"/>
<path opacity="0.7" d="M471 195L481 200.774V189.226L471 195ZM480 195V196H532V195V194H480V195Z" fill="#5C8F86"/>
<path opacity="0.7" d="M95.7958 168.722L106.76 165.1L98.1411 157.415L95.7958 168.722ZM101.785 162.004L102.579 162.613C112.805 149.292 134.817 119.966 190.125 100.666L189.796 99.7218L189.466 98.7776C133.631 118.261 111.326 147.934 100.992 161.395L101.785 162.004Z" fill="#5C8F86"/>
<path opacity="0.7" d="M333.014 99.6375L344.395 97.6878L340.393 108.519L333.014 99.6375ZM427.014 168.637L426.511 169.502C425.5 168.913 424.417 167.768 423.224 166.332C422.009 164.869 420.574 162.969 418.876 160.764C415.469 156.338 410.916 150.569 404.618 144.159C392.03 131.347 372.434 115.937 341.088 103.687L341.452 102.755L341.816 101.824C373.446 114.185 393.275 129.76 406.045 142.758C412.426 149.253 417.036 155.096 420.461 159.544C422.18 161.777 423.578 163.629 424.762 165.054C425.968 166.505 426.85 167.384 427.518 167.773L427.014 168.637Z" fill="#5C8F86"/>
<path opacity="0.7" d="M433 221L422.989 226.755L432.979 232.547L433 221ZM96 221L95.111 221.458C107.659 245.815 131.177 264.172 160.198 276.596C189.225 289.022 223.836 295.548 258.711 296.199C293.588 296.849 328.779 291.624 358.972 280.505C389.156 269.388 414.424 252.35 429.331 229.32L428.491 228.776L427.652 228.233C413.057 250.782 388.216 267.603 358.281 278.628C328.355 289.649 293.416 294.846 258.749 294.199C224.08 293.553 189.733 287.064 160.985 274.757C132.23 262.447 109.155 244.353 96.889 220.542L96 221Z" fill="#5C8F86"/>
<defs>
<linearGradient id="paint0_linear_14_2" x1="134.5" y1="169" x2="134.5" y2="222" gradientUnits="userSpaceOnUse">
<stop stop-color="#7DAAA2"/>
<stop offset="1" stop-color="#5C8F86"/>
</linearGradient>
<linearGradient id="paint1_linear_14_2" x1="261.5" y1="67" x2="261.5" y2="120" gradientUnits="userSpaceOnUse">
<stop stop-color="#7DAAA2"/>
<stop offset="1" stop-color="#5C8F86"/>
</linearGradient>
<linearGradient id="paint2_linear_14_2" x1="398.5" y1="169" x2="398.5" y2="222" gradientUnits="userSpaceOnUse">
<stop stop-color="#7DAAA2"/>
<stop offset="1" stop-color="#5C8F86"/>
</linearGradient>
</defs>
</svg>
